<mxfile host="app.diagrams.net" modified="2022-03-15T09:54:35.060Z" agent="5.0 (Windows NT 10.0; Win64; x64) AppleWebKit/537.36 (KHTML, like Gecko) Chrome/99.0.4844.51 Safari/537.36 Edg/99.0.1150.39" etag="6q8nMqsGO23Oqn9N8JN1" version="17.0.0" type="github">
  <diagram id="yC8JJsUS1HMVucSh8iSA" name="Page-1">
    <mxGraphModel dx="1650" dy="1152" grid="1" gridSize="10" guides="1" tooltips="1" connect="1" arrows="1" fold="1" page="1" pageScale="1" pageWidth="827" pageHeight="1169" math="0" shadow="0">
      <root>
        <mxCell id="0" />
        <mxCell id="1" parent="0" />
        <mxCell id="Nkv8eoUzmcU8WMkyTMcs-2" value="" style="shape=umlLifeline;participant=umlActor;perimeter=lifelinePerimeter;whiteSpace=wrap;html=1;container=1;collapsible=0;recursiveResize=0;verticalAlign=top;spacingTop=36;outlineConnect=0;" vertex="1" parent="1">
          <mxGeometry x="170" y="180" width="20" height="620" as="geometry" />
        </mxCell>
        <mxCell id="Nkv8eoUzmcU8WMkyTMcs-3" value="epay" style="shape=umlLifeline;perimeter=lifelinePerimeter;whiteSpace=wrap;html=1;container=1;collapsible=0;recursiveResize=0;outlineConnect=0;" vertex="1" parent="1">
          <mxGeometry x="260" y="180" width="100" height="310" as="geometry" />
        </mxCell>
        <mxCell id="Nkv8eoUzmcU8WMkyTMcs-4" value="promotion" style="shape=umlLifeline;perimeter=lifelinePerimeter;whiteSpace=wrap;html=1;container=1;collapsible=0;recursiveResize=0;outlineConnect=0;" vertex="1" parent="1">
          <mxGeometry x="430" y="180" width="100" height="310" as="geometry" />
        </mxCell>
        <mxCell id="Nkv8eoUzmcU8WMkyTMcs-5" value="hap-consumer-service" style="shape=umlLifeline;perimeter=lifelinePerimeter;whiteSpace=wrap;html=1;container=1;collapsible=0;recursiveResize=0;outlineConnect=0;" vertex="1" parent="1">
          <mxGeometry x="630" y="180" width="150" height="310" as="geometry" />
        </mxCell>
        <mxCell id="Nkv8eoUzmcU8WMkyTMcs-11" value="服务" style="shape=note2;boundedLbl=1;whiteSpace=wrap;html=1;size=25;verticalAlign=top;align=center;" vertex="1" parent="1">
          <mxGeometry x="255" y="120" width="110" height="50" as="geometry" />
        </mxCell>
        <mxCell id="Nkv8eoUzmcU8WMkyTMcs-12" value="服务" style="shape=note2;boundedLbl=1;whiteSpace=wrap;html=1;size=25;verticalAlign=top;align=center;" vertex="1" parent="1">
          <mxGeometry x="430" y="120" width="110" height="50" as="geometry" />
        </mxCell>
        <mxCell id="Nkv8eoUzmcU8WMkyTMcs-13" value="DB" style="shape=umlLifeline;perimeter=lifelinePerimeter;whiteSpace=wrap;html=1;container=1;collapsible=0;recursiveResize=0;outlineConnect=0;" vertex="1" parent="1">
          <mxGeometry x="850" y="180" width="150" height="310" as="geometry" />
        </mxCell>
      </root>
    </mxGraphModel>
  </diagram>
</mxfile>
